<svg width="2278" height="444" viewBox="0 0 2278 444" fill="none" xmlns="http://www.w3.org/2000/svg">
<path fill-rule="evenodd" clip-rule="evenodd" d="M1282.8 0H1345.15V349.872H1282.8V0ZM901.262 349.872H833.682V71.7916H741.356V12.3596H995.014V71.7916H901.262V349.872ZM138.936 110.396H138.661V82.9168V39.4271C69.4679 61.129 18.8085 118.349 4.25594 187.193C1.47584 198.146 0 209.615 0 221.426V249.162V249.47V249.779V258.058H0.257415C4.70213 330.861 65.2119 388.546 139.227 388.546C216.126 388.546 278.455 326.285 278.455 249.47C278.455 172.656 216.109 110.396 139.227 110.396H138.936ZM466.197 317.577H466.763V388.546C535.956 366.843 586.598 309.622 601.151 240.762C603.931 229.826 605.423 218.357 605.423 206.547V169.913H605.167C600.722 97.1106 540.195 39.4271 466.197 39.4271C389.298 39.4271 326.97 101.687 326.97 178.501C326.97 255.299 389.298 317.577 466.197 317.577ZM1107.8 114.098C1033.56 114.098 984.065 164.496 984.065 233.888C984.065 303.296 1033.56 354.158 1107.8 354.158C1180.13 354.158 1231.04 304.719 1231.04 233.888C1231.06 162.576 1180.13 114.098 1107.8 114.098ZM1107.8 298.068C1072.1 298.068 1047.35 270.024 1047.35 233.888C1047.35 197.289 1071.62 169.708 1107.8 169.708C1142.07 169.708 1167.76 195.85 1167.76 233.888C1167.76 271.927 1141.1 298.068 1107.8 298.068ZM1485.27 354.158C1546.2 354.158 1575.21 322.788 1575.21 281.903C1575.21 235.791 1545.71 224.854 1495.26 206.323C1472.42 197.77 1460.99 191.101 1460.99 181.605C1460.99 169.245 1473.35 164.496 1482.89 164.496C1500.01 164.496 1520.96 172.108 1538.57 189.215L1569.03 143.103C1542.38 122.669 1516.21 114.098 1484.32 114.098C1436.26 114.098 1400.1 141.2 1400.1 183.027C1400.1 228.179 1433.41 246.248 1471.97 259.087C1501.95 269.064 1513.85 274.292 1513.85 284.287C1513.85 295.703 1503.86 303.296 1485.77 303.296C1460.06 303.296 1440.08 294.263 1421.04 276.675L1391.06 319.942C1416.26 341.798 1448.15 354.158 1485.27 354.158ZM1693.87 354.158C1725.27 354.158 1740.49 347.49 1755.25 339.416L1739.55 289.515C1729.08 294.743 1717.67 297.589 1710.04 297.589C1695.29 297.589 1690.05 288.092 1690.05 267.641V169.245H1752.88V117.424H1690.05V35.1759L1627.7 41.827V117.424H1600.11V169.227H1627.7V276.675C1627.7 328.958 1653.89 354.158 1693.87 354.158ZM1896.94 114.098C1822.71 114.098 1773.22 164.496 1773.22 233.888C1773.22 303.296 1822.71 354.158 1896.94 354.158C1969.28 354.158 2020.2 304.719 2020.2 233.888C2020.2 162.576 1969.28 114.098 1896.94 114.098ZM1896.94 298.068C1861.25 298.068 1836.5 270.024 1836.5 233.888C1836.5 197.289 1860.77 169.708 1896.94 169.708C1931.22 169.708 1956.9 195.85 1956.9 233.888C1956.9 271.927 1930.25 298.068 1896.94 298.068ZM2081.83 444H2145.11L2270.29 117.424H2206.98L2154.15 260.03H2153.21L2096.58 117.424H2029.94L2123.23 335.61L2081.83 444Z" fill="#F1F3F5"/>
</svg>
